<svg width="758" height="582" viewBox="0 0 758 582" fill="none" xmlns="http://www.w3.org/2000/svg">
<path d="M397.344 486.35L419.819 477.93" stroke="#3255D9" stroke-width="8" stroke-linecap="round"/>
<path d="M178 575.574L201.948 574" stroke="#3255D9" stroke-width="8" stroke-linecap="round"/>
<path d="M277.297 551.216L292.621 532.745" stroke="#3255D9" stroke-width="8" stroke-linecap="round"/>
<path d="M297 512.969L298.228 489" stroke="#3255D9" stroke-width="8" stroke-linecap="round"/>
<path d="M288.732 449.398L297.187 471.86" stroke="#3255D9" stroke-width="8" stroke-linecap="round"/>
<path d="M186.831 453.554L202.176 435.101" stroke="#3255D9" stroke-width="8" stroke-linecap="round"/>
<path d="M186.72 490.845L184 467" stroke="#3255D9" stroke-width="8" stroke-linecap="round"/>
<path d="M738.646 30.7926L753.386 49.7322" stroke="#3255D9" stroke-width="8" stroke-linecap="round"/>
<path d="M707 4L726.17 18.4394" stroke="#3255D9" stroke-width="8" stroke-linecap="round"/>
<path d="M53.9996 270.104L59.9996 267" stroke="#3255D9" stroke-width="8" stroke-linecap="round"/>
<path d="M20.9996 309.77L34.6062 290" stroke="#3255D9" stroke-width="8" stroke-linecap="round"/>
<path d="M441.263 467.969L463.249 458.347" stroke="#3255D9" stroke-width="8" stroke-linecap="round"/>
<path d="M231 570.104L253.925 563" stroke="#3255D9" stroke-width="8" stroke-linecap="round"/>
<path d="M260 426L280.087 439.135" stroke="#3255D9" stroke-width="8" stroke-linecap="round"/>
<path d="M219.515 426.671L243.41 424.433" stroke="#3255D9" stroke-width="8" stroke-linecap="round"/>
<path d="M3.99957 358.187L10.1944 335" stroke="#3255D9" stroke-width="8" stroke-linecap="round"/>
<path d="M5.06525 413.459L4.09529 385.996" stroke="#3255D9" stroke-width="8" stroke-linecap="round"/>
<path d="M10.0005 438L15.136 461.444" stroke="#3255D9" stroke-width="8" stroke-linecap="round"/>
<path d="M23.0005 482L32.03 504.237" stroke="#3255D9" stroke-width="8" stroke-linecap="round"/>
<path d="M39.0005 519L53.9994 537.736" stroke="#3255D9" stroke-width="8" stroke-linecap="round"/>
<path d="M74.0005 554L94.2236 566.924" stroke="#3255D9" stroke-width="8" stroke-linecap="round"/>
<path d="M121 574L144.707 577.743" stroke="#3255D9" stroke-width="8" stroke-linecap="round"/>
<path d="M220.33 528.199L242.913 533.41" stroke="#3255D9" stroke-width="8" stroke-linecap="round"/>
<path d="M260 531.194L273 527" stroke="#3255D9" stroke-width="8" stroke-linecap="round"/>
<path d="M312 515.104L334.925 508" stroke="#3255D9" stroke-width="8" stroke-linecap="round"/>
<path d="M206.958 521.759L191.535 503.37" stroke="#3255D9" stroke-width="8" stroke-linecap="round"/>
<path d="M357 500.278L379.869 493" stroke="#3255D9" stroke-width="8" stroke-linecap="round"/>
</svg>
