<svg width="51" height="51" viewBox="0 0 51 51" fill="none" xmlns="http://www.w3.org/2000/svg">
<path d="M46.0056 43.8282C45.8657 44.0705 45.6644 44.2717 45.4221 44.4116C45.1797 44.5515 44.9048 44.6251 44.625 44.625H6.37501C6.09539 44.6248 5.82076 44.5509 5.57871 44.4109C5.33666 44.2709 5.1357 44.0697 4.99601 43.8275C4.85632 43.5852 4.78283 43.3105 4.7829 43.0309C4.78297 42.7513 4.85661 42.4766 4.99642 42.2344C8.03052 36.989 12.7062 33.2277 18.1628 31.4447C15.4637 29.838 13.3667 27.3896 12.1938 24.4757C11.0209 21.5617 10.8369 18.3433 11.6701 15.3147C12.5034 12.2861 14.3077 9.61473 16.8062 7.71086C19.3046 5.80699 22.3589 4.77588 25.5 4.77588C28.6412 4.77588 31.6955 5.80699 34.1939 7.71086C36.6923 9.61473 38.4967 12.2861 39.3299 15.3147C40.1631 18.3433 39.9792 21.5617 38.8063 24.4757C37.6333 27.3896 35.5363 29.838 32.8372 31.4447C38.2938 33.2277 42.9695 36.989 46.0036 42.2344C46.1438 42.4765 46.2178 42.7513 46.2181 43.031C46.2185 43.3108 46.1452 43.5857 46.0056 43.8282Z" fill="#3255D9"/>
</svg>
